<svg width="15" height="15" viewBox="0 0 15 15" fill="none" xmlns="http://www.w3.org/2000/svg">
<path d="M14.6095 0H0.390662C0.174879 0 0 0.173414 0 0.387389V14.6126C0 14.8266 0.174879 15 0.390662 15H5.11744V14.9966C5.33077 14.9942 5.49423 14.8757 5.50174 14.6753C5.52112 14.1545 5.50743 13.6325 5.50743 13.1289C5.12673 13.1465 4.76329 13.1942 4.40394 13.1736C3.61138 13.1284 3.00235 12.793 2.68649 12.0235C2.49939 11.5676 2.21746 11.1776 1.77838 10.9174C1.69639 10.8688 1.6247 10.7971 1.56196 10.7244C1.47996 10.6296 1.4953 10.5321 1.62486 10.5061C1.75556 10.4797 1.89835 10.4613 2.02724 10.4852C2.53345 10.5794 2.8835 10.8943 3.15145 11.313C3.68128 12.1414 4.49683 12.395 5.41436 12.0124C5.46552 11.9911 5.53055 11.9394 5.54019 11.8922C5.61417 11.5255 5.75238 11.1911 6.0309 10.898C5.72125 10.8411 5.43442 10.7992 5.15312 10.7346C4.34312 10.5487 3.61545 10.2144 3.08333 9.55028C2.64918 9.00857 2.45065 8.37444 2.35939 7.69953C2.21647 6.64244 2.3444 5.65292 3.07649 4.80816C3.11348 4.76549 3.13353 4.67806 3.11707 4.6249C2.93372 4.03082 2.96174 3.44174 3.14346 2.85429C3.23882 2.54578 3.26537 2.53041 3.58286 2.5734C3.60227 2.57599 3.62115 2.58082 3.6404 2.58407C4.27681 2.68848 4.82459 2.99406 5.36419 3.32214C5.43673 3.36627 5.54722 3.39373 5.62692 3.37451C6.91574 3.06439 8.2021 3.06568 9.49075 3.37564C9.56556 3.39357 9.66547 3.36804 9.737 3.33088C10.0304 3.17881 10.3112 3.00201 10.6083 2.85783C10.9539 2.69025 11.318 2.56419 11.71 2.57113C11.7786 2.57243 11.8847 2.63739 11.9077 2.69751C12.1435 3.31713 12.1932 3.94854 12.0053 4.59337C11.9852 4.66221 12.0151 4.76031 12.0524 4.82818C12.2379 5.16563 12.4968 5.47705 12.6142 5.83499C12.9719 6.92602 12.8416 8.0064 12.3546 9.03181C11.9083 9.97174 11.0808 10.448 10.1011 10.6937C9.77026 10.7766 9.43129 10.827 9.07437 10.8965C9.5421 11.381 9.61543 11.9723 9.60713 12.5916C9.5985 13.2304 9.60079 13.8695 9.60044 14.5085C9.60028 14.818 9.73652 14.9889 9.9743 14.9989C9.97414 14.9999 15 14.9999 15 14.9999V0.387389C14.9999 0.173414 14.8251 0 14.6095 0Z" fill="#F2F2F2"/>
</svg>
