<svg width="15" height="15" viewBox="0 0 15 15" fill="none" xmlns="http://www.w3.org/2000/svg">
<g clip-path="url(#clip0)">
<path d="M0.937503 1.02062C-0.241248 2.245 2.46614e-06 3.54562 2.46614e-06 7.49687C2.46614e-06 10.7781 -0.572498 14.0675 2.42375 14.8419C3.35938 15.0825 11.6494 15.0825 12.5838 14.8406C13.8313 14.5187 14.8463 13.5069 14.985 11.7425C15.0044 11.4962 15.0044 3.50187 14.9844 3.25062C14.8369 1.37125 13.68 0.288123 12.1556 0.0687485C11.8063 0.0181235 11.7363 0.00312347 9.94375 -1.52737e-06C3.58563 0.00312347 2.19188 -0.280002 0.937503 1.02062Z" fill="url(#paint0_linear)"/>
<path d="M7.49876 1.96189C5.22938 1.96189 3.07438 1.76001 2.25126 3.87251C1.91126 4.74501 1.96063 5.87814 1.96063 7.50064C1.96063 8.92439 1.91501 10.2625 2.25126 11.1281C3.07251 13.2419 5.24501 13.0394 7.49751 13.0394C9.67063 13.0394 11.9113 13.2656 12.7444 11.1281C13.085 10.2469 13.035 9.13064 13.035 7.50064C13.035 5.33689 13.1544 3.94001 12.105 2.89126C11.0425 1.82876 9.60563 1.96189 7.49626 1.96189H7.49876ZM7.00251 2.96001C11.7363 2.95251 12.3388 2.42626 12.0063 9.73689C11.8881 12.3225 9.91938 12.0388 7.49938 12.0388C3.08688 12.0388 2.96001 11.9125 2.96001 7.49814C2.96001 3.03251 3.31001 2.96251 7.00251 2.95876V2.96001ZM10.455 3.87939C10.0881 3.87939 9.79063 4.17689 9.79063 4.54376C9.79063 4.91064 10.0881 5.20814 10.455 5.20814C10.8219 5.20814 11.1194 4.91064 11.1194 4.54376C11.1194 4.17689 10.8219 3.87939 10.455 3.87939ZM7.49876 4.65626C5.92813 4.65626 4.65501 5.93001 4.65501 7.50064C4.65501 9.07126 5.92813 10.3444 7.49876 10.3444C9.06938 10.3444 10.3419 9.07126 10.3419 7.50064C10.3419 5.93001 9.06938 4.65626 7.49876 4.65626ZM7.49876 5.65439C9.93938 5.65439 9.94251 9.34689 7.49876 9.34689C5.05876 9.34689 5.05501 5.65439 7.49876 5.65439Z" fill="white"/>
</g>
<defs>
<linearGradient id="paint0_linear" x1="0.966265" y1="14.0419" x2="14.9072" y2="1.97623" gradientUnits="userSpaceOnUse">
<stop stop-color="#FFDD55"/>
<stop offset="0.5" stop-color="#FF543E"/>
<stop offset="1" stop-color="#C837AB"/>
</linearGradient>
<clipPath id="clip0">
<rect width="15" height="15" fill="white"/>
</clipPath>
</defs>
</svg>
