<svg width="15" height="15" viewBox="0 0 15 15" fill="none" xmlns="http://www.w3.org/2000/svg">
<path d="M13.6431 0H1.35687C0.6075 0 0 0.6075 0 1.35687V13.6431C0 14.3925 0.6075 15 1.35687 15H13.6431C14.3925 15 15 14.3925 15 13.6431V1.35687C15 0.6075 14.3925 0 13.6431 0ZM4.64164 12.952C4.64164 13.1701 4.46486 13.3469 4.24677 13.3469H2.5659C2.34781 13.3469 2.17103 13.1701 2.17103 12.952V5.90588C2.17103 5.68779 2.34781 5.51101 2.5659 5.51101H4.24677C4.46486 5.51101 4.64164 5.68779 4.64164 5.90588V12.952ZM3.40634 4.84681C2.52444 4.84681 1.8095 4.13187 1.8095 3.24997C1.8095 2.36808 2.52444 1.65314 3.40634 1.65314C4.28823 1.65314 5.00317 2.36808 5.00317 3.24997C5.00317 4.13187 4.28827 4.84681 3.40634 4.84681ZM13.4258 12.9838C13.4258 13.1843 13.2632 13.3469 13.0627 13.3469H11.259C11.0585 13.3469 10.896 13.1843 10.896 12.9838V9.67877C10.896 9.18573 11.0406 7.51826 9.6075 7.51826C8.49589 7.51826 8.27042 8.65959 8.22514 9.17179V12.9838C8.22514 13.1843 8.06262 13.3469 7.86208 13.3469H6.1176C5.91711 13.3469 5.75454 13.1843 5.75454 12.9838V5.87407C5.75454 5.67357 5.91711 5.51101 6.1176 5.51101H7.86208C8.06258 5.51101 8.22514 5.67357 8.22514 5.87407V6.4888C8.63733 5.87022 9.2499 5.39277 10.5541 5.39277C13.4423 5.39277 13.4258 8.09105 13.4258 9.57361V12.9838Z" fill="#0077B7"/>
</svg>
